<svg width="638" height="638" viewBox="0 0 638 638" fill="none" xmlns="http://www.w3.org/2000/svg">
	<g clip-path="url(#clip0_635_1924)">
		<path
			d="M239.37 205.979L268.246 236.26V207.443C264.662 202.094 258.366 187.55 271.508 177.15C283.136 167.948 293.618 176.036 298.445 180.066L268.246 207.443V236.26L257.558 275.09L298.445 310.247L272.307 324.481L239.37 349.778L175.686 330.235L226.14 275.09L187.316 272.452L153.859 278.567L107.329 248.032L98.1744 206.98L128.163 207.443L239.37 205.979Z"
			fill="#00FFEA" />
		<path
			d="M396.378 205.979L370.784 236.26V207.443C374.368 202.094 380.664 187.55 367.521 177.15C355.894 167.948 345.411 176.036 340.584 180.066L370.784 207.443V236.26L381.471 275.09L340.584 310.247L366.722 324.481L396.378 349.778L460.062 330.235L409.608 275.09L448.432 272.452L483.194 275.09L529.724 244.556L538.878 203.504L508.89 203.967L396.378 205.979Z"
			fill="#00FFEA" />
		<path d="M269.868 369.989L267.099 421.668H371.931L369.161 369.989H269.868Z" fill="#00FFEA" />
		<path
			d="M319.503 328.178L298.445 310.247L272.307 324.481L269.868 369.989H369.161L366.722 324.481L340.584 310.247L319.503 328.178Z"
			fill="#00FFEA" />
		<path d="M267.099 421.668L319.515 478.389L371.931 421.668H267.099Z" fill="#00FFEA" />
		<path
			d="M268.246 236.26L257.558 275.09L298.445 310.247L319.503 328.178L340.584 310.247L381.471 275.09L370.784 236.26H268.246Z"
			fill="#00FFEA" />
		<path d="M268.246 207.443V236.26H370.784V207.443L340.584 180.066H298.445L268.246 207.443Z"
			fill="#00FFEA" />
		<path
			d="M239.37 205.979L268.246 236.26M239.37 205.979L128.163 207.443M239.37 205.979L217.823 242.918M268.246 236.26L257.558 275.09M268.246 236.26L217.823 242.918M268.246 236.26V207.443M268.246 236.26H370.784M257.558 275.09H226.14M257.558 275.09L298.445 310.247M226.14 275.09L187.316 272.452L153.859 278.567M226.14 275.09L177.903 247.075M226.14 275.09L175.686 330.235L239.37 349.778L272.307 324.481M153.859 278.567L107.329 248.032L98.1744 206.98L128.163 207.443M153.859 278.567L128.163 207.443M128.163 207.443L177.903 247.075M177.903 247.075L217.823 242.918M298.445 310.247L319.503 328.178L340.584 310.247M298.445 310.247L272.307 324.481M272.307 324.481L269.868 369.989M267.099 421.668L319.515 478.39L371.931 421.668M267.099 421.668L269.868 369.989M267.099 421.668H371.931M268.246 207.443L298.445 180.066M268.246 207.443C264.662 202.094 258.366 187.55 271.508 177.15C283.136 167.948 293.618 176.036 298.445 180.066M298.445 180.066V158.662M298.445 180.066H340.584M269.868 369.989H369.161M396.378 205.979L370.784 236.26M396.378 205.979L508.89 203.967M396.378 205.979L417.925 242.918M370.784 236.26L381.471 275.09M370.784 236.26L417.925 242.918M370.784 236.26V207.443M381.471 275.09H409.608M381.471 275.09L340.584 310.247M409.608 275.09L448.432 272.452L483.194 275.09M409.608 275.09L457.845 247.075M409.608 275.09L460.062 330.235L396.378 349.778L366.722 324.481M483.194 275.09L529.724 244.556L538.878 203.504L508.89 203.967M483.194 275.09L508.89 203.967M508.89 203.967L457.845 247.075M457.845 247.075L417.925 242.918M340.584 310.247L366.722 324.481M366.722 324.481L369.161 369.989M371.931 421.668L369.161 369.989M370.784 207.443L340.584 180.066M370.784 207.443C374.368 202.094 380.664 187.55 367.521 177.15C355.894 167.948 345.411 176.036 340.584 180.066M340.584 180.066V158.662"
			stroke="#9826E3" stroke-width="11.2279" />
		<path
			d="M-0.136353 480.039C-0.136353 452.425 22.2494 430.039 49.8637 430.039H586.864C614.478 430.039 636.864 452.425 636.864 480.039V637.039H-0.136353V480.039Z"
			fill="#FF0000" />
		<text x="50%" y="582.98075" fill="#00FF00"
			font-family="Martian Mono" font-size="128" letter-spacing="-0.07em" text-anchor="middle"
			dominant-baseline="middle">
			PILLTXT
		</text>
	</g>
	<defs>
		<clipPath id="clip0_635_1924">
			<rect width="637.053" height="637.053" fill="white" />
		</clipPath>
	</defs>
</svg>
