<svg width="3828" height="3582" viewBox="0 0 3828 3582" fill="none" xmlns="http://www.w3.org/2000/svg">
<g clip-path="url(#clip0_545_2083)">
<path fill-rule="evenodd" clip-rule="evenodd" d="M0 2818.11L2736.06 3172L3780.1 2495.24L3794.53 328.926L1382.46 0L0 627.276V2818.11Z" fill="#C28F60"/>
<path fill-rule="evenodd" clip-rule="evenodd" d="M3794.53 328.926L2726.49 997.766L0 627.276L1382.46 0L3794.53 328.926Z" fill="#AA7950"/>
<path fill-rule="evenodd" clip-rule="evenodd" d="M2736.51 3182L2726.5 997.766L3794.53 328.926L3827.5 2515.33L2736.51 3182Z" fill="#D2A06D"/>
<path d="M911.265 1319.03L1053.86 1487.2V1343.83C1036.16 1315.04 1005.07 1238.86 1069.97 1195.08C1127.39 1156.35 1179.16 1202.95 1202.99 1225.93L1053.86 1343.83V1487.2L1001.08 1673.92L1202.99 1873.63L1073.92 1928.59L911.265 2034.49L596.776 1898.64L845.933 1654.87L654.207 1618.2L488.987 1628.33L259.208 1448.2L214 1238.4L362.09 1258.89L911.265 1319.03Z" fill="#25C8BF"/>
<path d="M1686.62 1414.23L1560.22 1549.37V1406C1577.92 1381.56 1609.01 1313.02 1544.11 1253.3C1486.69 1200.47 1434.93 1234.35 1411.09 1251.48L1560.22 1406V1549.37L1613 1749.05L1411.09 1899.18L1540.17 1985.84L1686.62 2129.69L2001.1 2071.07L1751.95 1766.11L1943.67 1776.53L2115.34 1810.73L2345.12 1687.02L2390.32 1488.32L2242.23 1472.45L1686.62 1414.23Z" fill="#25C8BF"/>
<path d="M1061.87 2153.54L1048.2 2408.98L1565.89 2472.54L1552.21 2213.74L1061.87 2153.54Z" fill="#25C8BF"/>
<path d="M1306.98 1975.61L1202.99 1873.63L1073.92 1928.59L1061.87 2153.54L1552.21 2213.74L1540.17 1985.84L1411.09 1899.18L1306.98 1975.61Z" fill="#25C8BF"/>
<path d="M1048.2 2408.98L1307.04 2722.97L1565.89 2472.54L1048.2 2408.98Z" fill="#25C8BF"/>
<path d="M1053.86 1487.2L1001.08 1673.92L1202.99 1873.63L1306.98 1975.61L1411.09 1899.18L1613 1749.05L1560.22 1549.37L1053.86 1487.2Z" fill="#25C8BF"/>
<path d="M1053.86 1343.83V1487.2L1560.22 1549.37V1406L1411.09 1251.48L1202.99 1225.93L1053.86 1343.83Z" fill="#25C8BF"/>
<path d="M911.265 1319.03L1053.86 1487.2M911.265 1319.03L362.09 1258.89M911.265 1319.03L804.857 1489.75M1053.86 1487.2L1001.08 1673.92M1053.86 1487.2L804.857 1489.75M1053.86 1487.2V1343.83M1053.86 1487.2L1560.22 1549.37M1001.08 1673.92L845.933 1654.87M1001.08 1673.92L1202.99 1873.63M845.933 1654.87L654.207 1618.2L488.987 1628.33M845.933 1654.87L607.723 1486.23M845.933 1654.87L596.776 1898.64L911.265 2034.49L1073.92 1928.59M488.987 1628.33L259.208 1448.2L214 1238.4L362.09 1258.89M488.987 1628.33L362.09 1258.89M362.09 1258.89L607.723 1486.23M607.723 1486.23L804.857 1489.75M1202.99 1873.63L1306.98 1975.61L1411.09 1899.18M1202.99 1873.63L1073.92 1928.59M1073.92 1928.59L1061.87 2153.54M1048.2 2408.98L1307.04 2722.97L1565.89 2472.54M1048.2 2408.98L1061.87 2153.54M1048.2 2408.98L1565.89 2472.54M1053.86 1343.83L1202.99 1225.93M1053.86 1343.83C1036.16 1315.04 1005.07 1238.86 1069.97 1195.08C1127.39 1156.35 1179.16 1202.95 1202.99 1225.93M1202.99 1225.93V1119.43M1202.99 1225.93L1411.09 1251.48M1061.87 2153.54L1552.21 2213.74M1686.62 1414.23L1560.22 1549.37M1686.62 1414.23L2242.23 1472.45M1686.62 1414.23L1793.02 1611.08M1560.22 1549.37L1613 1749.05M1560.22 1549.37L1793.02 1611.08M1560.22 1549.37V1406M1613 1749.05L1751.95 1766.11M1613 1749.05L1411.09 1899.18M1751.95 1766.11L1943.67 1776.53L2115.34 1810.73M1751.95 1766.11L1990.16 1655.97M1751.95 1766.11L2001.1 2071.07L1686.62 2129.69L1540.17 1985.84M2115.34 1810.73L2345.12 1687.02L2390.32 1488.32L2242.23 1472.45M2115.34 1810.73L2242.23 1472.45M2242.23 1472.45L1990.16 1655.97M1990.16 1655.97L1793.02 1611.08M1411.09 1899.18L1540.17 1985.84M1540.17 1985.84L1552.21 2213.74M1565.89 2472.54L1552.21 2213.74M1560.22 1406L1411.09 1251.48M1560.22 1406C1577.92 1381.56 1609.01 1313.02 1544.11 1253.3C1486.69 1200.47 1434.93 1234.35 1411.09 1251.48M1411.09 1251.48V1144.98" stroke="#2C004B" stroke-width="44.6258"/>
<path fill-rule="evenodd" clip-rule="evenodd" d="M1867.1 66.083L2657.2 173.806L1526.21 849.599L1525.54 2019.3L1123.13 1745.25L720.646 1972.73L770.881 744.567L1867.1 66.083Z" fill="#3D2511" fill-opacity="0.5"/>
</g>
<defs>
<clipPath id="clip0_545_2083">
<rect width="3827.5" height="3582" fill="white"/>
</clipPath>
</defs>
</svg>
